<?xml version="1.0" encoding="UTF-8"?>
<svg xmlns="http://www.w3.org/2000/svg" xmlns:xlink="http://www.w3.org/1999/xlink" width="256px" height="256px" viewBox="0 0 256 256" version="1.1">
<g id="surface1">
<path style=" stroke:none;fill-rule:nonzero;fill:rgb(23.529412%,23.529412%,23.529412%);fill-opacity:1;" d="M 26.730469 2.875 L 229.269531 2.875 C 244.042969 2.875 256 14.582031 256 29.042969 L 256 227.355469 C 256 241.8125 244.042969 253.542969 229.269531 253.542969 L 26.730469 253.542969 C 11.957031 253.542969 0 241.8125 0 227.355469 L 0 29.042969 C 0 14.582031 11.957031 2.875 26.730469 2.875 Z M 26.730469 2.875 "/>
<path style=" stroke:none;fill-rule:nonzero;fill:rgb(44.313725%,44.313725%,44.313725%);fill-opacity:1;" d="M 87 57.1875 L 193.917969 57.4375 C 193.917969 57.4375 199.644531 57.5 198.144531 62.082031 L 188.894531 91.25 C 188.894531 91.25 187.667969 94.980469 182.375 95.0625 L 139 94.769531 Z M 87 57.1875 "/>
<path style=" stroke:none;fill-rule:nonzero;fill:rgb(60.392157%,60.392157%,60.392157%);fill-opacity:1;" d="M 77.25 60.230469 C 77.25 60.230469 74.269531 57.355469 70.582031 68.667969 L 58.269531 105.417969 C 58.269531 105.417969 56.3125 109.917969 64.6875 114.625 L 178.105469 194.144531 C 178.105469 194.144531 181.332031 196.9375 183 191.832031 L 196.480469 150.8125 C 196.480469 150.8125 198.394531 146.0625 192.105469 141.730469 L 145.625 109.644531 Z M 77.25 60.230469 "/>
<path style=" stroke:none;fill-rule:nonzero;fill:rgb(44.313725%,44.313725%,44.313725%);fill-opacity:1;" d="M 118.6875 162.125 L 74.4375 161.542969 C 74.4375 161.542969 69.875 161.042969 67.167969 169.292969 L 58.332031 196.1875 C 58.332031 196.1875 57.269531 199.4375 62.9375 199.1875 L 168.292969 199.269531 C 168.292969 199.269531 171.957031 199.5 169.394531 197.6875 C 166.8125 195.917969 118.6875 162.125 118.6875 162.125 Z M 118.6875 162.125 "/>
</g>
</svg>
